<svg xmlns="http://www.w3.org/2000/svg" width="820" height="460"><rect width="100%" height="100%" fill="white"/><text x="410.0" y="30" text-anchor="middle" font-family="sans-serif" font-size="19">Sensitivity distributions by oracle hole category</text><line x1="80" y1="390.0" x2="780" y2="390.0" stroke="#e5e7eb"/><text x="72" y="394.0" text-anchor="end" font-family="sans-serif" font-size="11">0</text><line x1="80" y1="324.0" x2="780" y2="324.0" stroke="#e5e7eb"/><text x="72" y="328.0" text-anchor="end" font-family="sans-serif" font-size="11">3.45</text><line x1="80" y1="258.0" x2="780" y2="258.0" stroke="#e5e7eb"/><text x="72" y="262.0" text-anchor="end" font-family="sans-serif" font-size="11">6.89</text><line x1="80" y1="192.0" x2="780" y2="192.0" stroke="#e5e7eb"/><text x="72" y="196.0" text-anchor="end" font-family="sans-serif" font-size="11">10.3</text><line x1="80" y1="126.0" x2="780" y2="126.0" stroke="#e5e7eb"/><text x="72" y="130.0" text-anchor="end" font-family="sans-serif" font-size="11">13.8</text><line x1="80" y1="60.0" x2="780" y2="60.0" stroke="#e5e7eb"/><text x="72" y="64.0" text-anchor="end" font-family="sans-serif" font-size="11">17.2</text><line x1="196.7" y1="385.8" x2="196.7" y2="60.0" stroke="#2563eb" stroke-width="2"/><rect x="151.7" y="105.2" width="90" height="270.2" fill="#2563eb" fill-opacity="0.25" stroke="#2563eb"/><line x1="151.7" y1="289.0" x2="241.7" y2="289.0" stroke="#2563eb" stroke-width="3"/><text x="196.7" y="418" text-anchor="middle" font-family="sans-serif" font-size="13">decisive</text><text x="196.7" y="435" text-anchor="middle" font-family="sans-serif" font-size="10" fill="#6b7280">n=1580</text><line x1="430.0" y1="390.0" x2="430.0" y2="381.1" stroke="#dc2626" stroke-width="2"/><rect x="385.0" y="388.1" width="90" height="1.6" fill="#dc2626" fill-opacity="0.25" stroke="#dc2626"/><line x1="385.0" y1="389.2" x2="475.0" y2="389.2" stroke="#dc2626" stroke-width="3"/><text x="430.0" y="418" text-anchor="middle" font-family="sans-serif" font-size="13">fixed-zero</text><text x="430.0" y="435" text-anchor="middle" font-family="sans-serif" font-size="10" fill="#6b7280">n=4732</text><line x1="663.3" y1="389.8" x2="663.3" y2="381.6" stroke="#059669" stroke-width="2"/><rect x="618.3" y="387.5" width="90" height="2.1" fill="#059669" fill-opacity="0.25" stroke="#059669"/><line x1="618.3" y1="388.8" x2="708.3" y2="388.8" stroke="#059669" stroke-width="3"/><text x="663.3" y="418" text-anchor="middle" font-family="sans-serif" font-size="13">fixed-one</text><text x="663.3" y="435" text-anchor="middle" font-family="sans-serif" font-size="10" fill="#6b7280">n=1688</text><text transform="translate(20 225.0) rotate(-90)" text-anchor="middle" font-family="sans-serif" font-size="13">Logit range across 26 replacements</text></svg>