<svg xmlns="http://www.w3.org/2000/svg" width="900" height="500" viewBox="0 0 900 500"><rect width="100%" height="100%" fill="white"/><text x="381.0" y="30" text-anchor="middle" font-family="sans-serif" font-size="19">BERT-base + LoRA, pi=0.3, seed=9950</text><line x1="82" y1="435.0" x2="680" y2="435.0" stroke="#e5e7eb" stroke-width="1"/><text x="72" y="439.0" text-anchor="end" font-family="sans-serif" font-size="11" fill="#4b5563">0.00</text><line x1="82" y1="359.0" x2="680" y2="359.0" stroke="#e5e7eb" stroke-width="1"/><text x="72" y="363.0" text-anchor="end" font-family="sans-serif" font-size="11" fill="#4b5563">0.20</text><line x1="82" y1="283.0" x2="680" y2="283.0" stroke="#e5e7eb" stroke-width="1"/><text x="72" y="287.0" text-anchor="end" font-family="sans-serif" font-size="11" fill="#4b5563">0.40</text><line x1="82" y1="207.0" x2="680" y2="207.0" stroke="#e5e7eb" stroke-width="1"/><text x="72" y="211.0" text-anchor="end" font-family="sans-serif" font-size="11" fill="#4b5563">0.60</text><line x1="82" y1="131.0" x2="680" y2="131.0" stroke="#e5e7eb" stroke-width="1"/><text x="72" y="135.0" text-anchor="end" font-family="sans-serif" font-size="11" fill="#4b5563">0.80</text><line x1="82" y1="55.0" x2="680" y2="55.0" stroke="#e5e7eb" stroke-width="1"/><text x="72" y="59.0" text-anchor="end" font-family="sans-serif" font-size="11" fill="#4b5563">1.00</text><line x1="82.0" y1="55" x2="82.0" y2="435" stroke="#f3f4f6" stroke-width="1"/><text x="82.0" y="457" text-anchor="middle" font-family="sans-serif" font-size="11">1</text><line x1="113.5" y1="55" x2="113.5" y2="435" stroke="#f3f4f6" stroke-width="1"/><text x="113.5" y="457" text-anchor="middle" font-family="sans-serif" font-size="11">2</text><line x1="144.9" y1="55" x2="144.9" y2="435" stroke="#f3f4f6" stroke-width="1"/><text x="144.9" y="457" text-anchor="middle" font-family="sans-serif" font-size="11">3</text><line x1="176.4" y1="55" x2="176.4" y2="435" stroke="#f3f4f6" stroke-width="1"/><text x="176.4" y="457" text-anchor="middle" font-family="sans-serif" font-size="11">4</text><line x1="207.9" y1="55" x2="207.9" y2="435" stroke="#f3f4f6" stroke-width="1"/><text x="207.9" y="457" text-anchor="middle" font-family="sans-serif" font-size="11">5</text><line x1="239.4" y1="55" x2="239.4" y2="435" stroke="#f3f4f6" stroke-width="1"/><text x="239.4" y="457" text-anchor="middle" font-family="sans-serif" font-size="11">6</text><line x1="270.8" y1="55" x2="270.8" y2="435" stroke="#f3f4f6" stroke-width="1"/><text x="270.8" y="457" text-anchor="middle" font-family="sans-serif" font-size="11">7</text><line x1="302.3" y1="55" x2="302.3" y2="435" stroke="#f3f4f6" stroke-width="1"/><text x="302.3" y="457" text-anchor="middle" font-family="sans-serif" font-size="11">8</text><line x1="333.8" y1="55" x2="333.8" y2="435" stroke="#f3f4f6" stroke-width="1"/><text x="333.8" y="457" text-anchor="middle" font-family="sans-serif" font-size="11">9</text><line x1="365.3" y1="55" x2="365.3" y2="435" stroke="#f3f4f6" stroke-width="1"/><text x="365.3" y="457" text-anchor="middle" font-family="sans-serif" font-size="11">10</text><line x1="396.7" y1="55" x2="396.7" y2="435" stroke="#f3f4f6" stroke-width="1"/><text x="396.7" y="457" text-anchor="middle" font-family="sans-serif" font-size="11">11</text><line x1="428.2" y1="55" x2="428.2" y2="435" stroke="#f3f4f6" stroke-width="1"/><text x="428.2" y="457" text-anchor="middle" font-family="sans-serif" font-size="11">12</text><line x1="459.7" y1="55" x2="459.7" y2="435" stroke="#f3f4f6" stroke-width="1"/><text x="459.7" y="457" text-anchor="middle" font-family="sans-serif" font-size="11">13</text><line x1="491.2" y1="55" x2="491.2" y2="435" stroke="#f3f4f6" stroke-width="1"/><text x="491.2" y="457" text-anchor="middle" font-family="sans-serif" font-size="11">14</text><line x1="522.6" y1="55" x2="522.6" y2="435" stroke="#f3f4f6" stroke-width="1"/><text x="522.6" y="457" text-anchor="middle" font-family="sans-serif" font-size="11">15</text><line x1="554.1" y1="55" x2="554.1" y2="435" stroke="#f3f4f6" stroke-width="1"/><text x="554.1" y="457" text-anchor="middle" font-family="sans-serif" font-size="11">16</text><line x1="585.6" y1="55" x2="585.6" y2="435" stroke="#f3f4f6" stroke-width="1"/><text x="585.6" y="457" text-anchor="middle" font-family="sans-serif" font-size="11">17</text><line x1="617.1" y1="55" x2="617.1" y2="435" stroke="#f3f4f6" stroke-width="1"/><text x="617.1" y="457" text-anchor="middle" font-family="sans-serif" font-size="11">18</text><line x1="648.5" y1="55" x2="648.5" y2="435" stroke="#f3f4f6" stroke-width="1"/><text x="648.5" y="457" text-anchor="middle" font-family="sans-serif" font-size="11">19</text><line x1="680.0" y1="55" x2="680.0" y2="435" stroke="#f3f4f6" stroke-width="1"/><text x="680.0" y="457" text-anchor="middle" font-family="sans-serif" font-size="11">20</text><line x1="82" y1="435" x2="680" y2="435" stroke="#374151"/><line x1="82" y1="55" x2="82" y2="435" stroke="#374151"/><text x="381.0" y="484" text-anchor="middle" font-family="sans-serif" font-size="13">Epoch</text><text transform="translate(20 245.0) rotate(-90)" text-anchor="middle" font-family="sans-serif" font-size="13">Metric</text><polyline points="82.0,434.2 113.5,434.9 144.9,435.0 176.4,399.3 207.9,435.0 239.4,376.3 270.8,422.1 302.3,434.3 333.8,363.9 365.3,401.0 396.7,399.3 428.2,344.8 459.7,434.7 491.2,432.0 522.6,418.5 554.1,387.9 585.6,430.1 617.1,431.6 648.5,413.3 680.0,422.2" fill="none" stroke="#2563eb" stroke-width="2"/><circle cx="82.0" cy="434.2" r="4" fill="#2563eb"/><circle cx="113.5" cy="434.9" r="4" fill="#2563eb"/><circle cx="144.9" cy="435.0" r="4" fill="#2563eb"/><circle cx="176.4" cy="399.3" r="4" fill="#2563eb"/><circle cx="207.9" cy="435.0" r="4" fill="#2563eb"/><circle cx="239.4" cy="376.3" r="4" fill="#2563eb"/><circle cx="270.8" cy="422.1" r="4" fill="#2563eb"/><circle cx="302.3" cy="434.3" r="4" fill="#2563eb"/><circle cx="333.8" cy="363.9" r="4" fill="#2563eb"/><circle cx="365.3" cy="401.0" r="4" fill="#2563eb"/><circle cx="396.7" cy="399.3" r="4" fill="#2563eb"/><circle cx="428.2" cy="344.8" r="4" fill="#2563eb"/><circle cx="459.7" cy="434.7" r="4" fill="#2563eb"/><circle cx="491.2" cy="432.0" r="4" fill="#2563eb"/><circle cx="522.6" cy="418.5" r="4" fill="#2563eb"/><circle cx="554.1" cy="387.9" r="4" fill="#2563eb"/><circle cx="585.6" cy="430.1" r="4" fill="#2563eb"/><circle cx="617.1" cy="431.6" r="4" fill="#2563eb"/><circle cx="648.5" cy="413.3" r="4" fill="#2563eb"/><circle cx="680.0" cy="422.2" r="4" fill="#2563eb"/><line x1="700" y1="73" x2="724" y2="73" stroke="#2563eb" stroke-width="3"/><text x="730" y="77" font-family="sans-serif" font-size="11">fixed_position_prediction_flip_rate</text><polyline points="82.0,227.2 113.5,203.8 144.9,193.1 176.4,177.9 207.9,176.4 239.4,148.8 270.8,163.4 302.3,168.6 333.8,147.5 365.3,137.0 396.7,138.5 428.2,128.3 459.7,128.7 491.2,123.5 522.6,122.3 554.1,119.9 585.6,119.6 617.1,118.6 648.5,118.9 680.0,114.8" fill="none" stroke="#dc2626" stroke-width="2"/><circle cx="82.0" cy="227.2" r="4" fill="#dc2626"/><circle cx="113.5" cy="203.8" r="4" fill="#dc2626"/><circle cx="144.9" cy="193.1" r="4" fill="#dc2626"/><circle cx="176.4" cy="177.9" r="4" fill="#dc2626"/><circle cx="207.9" cy="176.4" r="4" fill="#dc2626"/><circle cx="239.4" cy="148.8" r="4" fill="#dc2626"/><circle cx="270.8" cy="163.4" r="4" fill="#dc2626"/><circle cx="302.3" cy="168.6" r="4" fill="#dc2626"/><circle cx="333.8" cy="147.5" r="4" fill="#dc2626"/><circle cx="365.3" cy="137.0" r="4" fill="#dc2626"/><circle cx="396.7" cy="138.5" r="4" fill="#dc2626"/><circle cx="428.2" cy="128.3" r="4" fill="#dc2626"/><circle cx="459.7" cy="128.7" r="4" fill="#dc2626"/><circle cx="491.2" cy="123.5" r="4" fill="#dc2626"/><circle cx="522.6" cy="122.3" r="4" fill="#dc2626"/><circle cx="554.1" cy="119.9" r="4" fill="#dc2626"/><circle cx="585.6" cy="119.6" r="4" fill="#dc2626"/><circle cx="617.1" cy="118.6" r="4" fill="#dc2626"/><circle cx="648.5" cy="118.9" r="4" fill="#dc2626"/><circle cx="680.0" cy="114.8" r="4" fill="#dc2626"/><line x1="700" y1="92" x2="724" y2="92" stroke="#dc2626" stroke-width="3"/><text x="730" y="96" font-family="sans-serif" font-size="11">hole_position_localization_auroc</text><polyline points="82.0,95.8 113.5,89.6 144.9,92.7 176.4,88.3 207.9,88.1 239.4,77.2 270.8,79.8 302.3,88.5 333.8,74.3 365.3,71.3 396.7,73.4 428.2,74.5 459.7,76.9 491.2,74.1 522.6,73.0 554.1,73.0 585.6,70.4 617.1,69.5 648.5,71.1 680.0,69.1" fill="none" stroke="#059669" stroke-width="2"/><circle cx="82.0" cy="95.8" r="4" fill="#059669"/><circle cx="113.5" cy="89.6" r="4" fill="#059669"/><circle cx="144.9" cy="92.7" r="4" fill="#059669"/><circle cx="176.4" cy="88.3" r="4" fill="#059669"/><circle cx="207.9" cy="88.1" r="4" fill="#059669"/><circle cx="239.4" cy="77.2" r="4" fill="#059669"/><circle cx="270.8" cy="79.8" r="4" fill="#059669"/><circle cx="302.3" cy="88.5" r="4" fill="#059669"/><circle cx="333.8" cy="74.3" r="4" fill="#059669"/><circle cx="365.3" cy="71.3" r="4" fill="#059669"/><circle cx="396.7" cy="73.4" r="4" fill="#059669"/><circle cx="428.2" cy="74.5" r="4" fill="#059669"/><circle cx="459.7" cy="76.9" r="4" fill="#059669"/><circle cx="491.2" cy="74.1" r="4" fill="#059669"/><circle cx="522.6" cy="73.0" r="4" fill="#059669"/><circle cx="554.1" cy="73.0" r="4" fill="#059669"/><circle cx="585.6" cy="70.4" r="4" fill="#059669"/><circle cx="617.1" cy="69.5" r="4" fill="#059669"/><circle cx="648.5" cy="71.1" r="4" fill="#059669"/><circle cx="680.0" cy="69.1" r="4" fill="#059669"/><line x1="700" y1="111" x2="724" y2="111" stroke="#059669" stroke-width="3"/><text x="730" y="115" font-family="sans-serif" font-size="11">hole_repair_macro_auc</text><polyline points="82.0,146.5 113.5,110.2 144.9,112.5 176.4,100.8 207.9,97.8 239.4,78.7 270.8,82.2 302.3,95.3 333.8,74.9 365.3,71.7 396.7,72.6 428.2,73.4 459.7,77.9 491.2,73.3 522.6,73.2 554.1,72.4 585.6,70.1 617.1,68.7 648.5,70.8 680.0,68.0" fill="none" stroke="#d97706" stroke-width="2"/><circle cx="82.0" cy="146.5" r="4" fill="#d97706"/><circle cx="113.5" cy="110.2" r="4" fill="#d97706"/><circle cx="144.9" cy="112.5" r="4" fill="#d97706"/><circle cx="176.4" cy="100.8" r="4" fill="#d97706"/><circle cx="207.9" cy="97.8" r="4" fill="#d97706"/><circle cx="239.4" cy="78.7" r="4" fill="#d97706"/><circle cx="270.8" cy="82.2" r="4" fill="#d97706"/><circle cx="302.3" cy="95.3" r="4" fill="#d97706"/><circle cx="333.8" cy="74.9" r="4" fill="#d97706"/><circle cx="365.3" cy="71.7" r="4" fill="#d97706"/><circle cx="396.7" cy="72.6" r="4" fill="#d97706"/><circle cx="428.2" cy="73.4" r="4" fill="#d97706"/><circle cx="459.7" cy="77.9" r="4" fill="#d97706"/><circle cx="491.2" cy="73.3" r="4" fill="#d97706"/><circle cx="522.6" cy="73.2" r="4" fill="#d97706"/><circle cx="554.1" cy="72.4" r="4" fill="#d97706"/><circle cx="585.6" cy="70.1" r="4" fill="#d97706"/><circle cx="617.1" cy="68.7" r="4" fill="#d97706"/><circle cx="648.5" cy="70.8" r="4" fill="#d97706"/><circle cx="680.0" cy="68.0" r="4" fill="#d97706"/><line x1="700" y1="130" x2="724" y2="130" stroke="#d97706" stroke-width="3"/><text x="730" y="134" font-family="sans-serif" font-size="11">hole_top1_valid_filling_accuracy</text><polyline points="82.0,238.8 113.5,241.9 144.9,242.5 176.4,245.3 207.9,242.2 239.4,241.8 270.8,240.1 302.3,245.2 333.8,252.0 365.3,250.2 396.7,255.6 428.2,250.3 459.7,251.2 491.2,245.8 522.6,245.4 554.1,252.7 585.6,247.8 617.1,250.8 648.5,246.2 680.0,248.1" fill="none" stroke="#7c3aed" stroke-width="2"/><circle cx="82.0" cy="238.8" r="4" fill="#7c3aed"/><circle cx="113.5" cy="241.9" r="4" fill="#7c3aed"/><circle cx="144.9" cy="242.5" r="4" fill="#7c3aed"/><circle cx="176.4" cy="245.3" r="4" fill="#7c3aed"/><circle cx="207.9" cy="242.2" r="4" fill="#7c3aed"/><circle cx="239.4" cy="241.8" r="4" fill="#7c3aed"/><circle cx="270.8" cy="240.1" r="4" fill="#7c3aed"/><circle cx="302.3" cy="245.2" r="4" fill="#7c3aed"/><circle cx="333.8" cy="252.0" r="4" fill="#7c3aed"/><circle cx="365.3" cy="250.2" r="4" fill="#7c3aed"/><circle cx="396.7" cy="255.6" r="4" fill="#7c3aed"/><circle cx="428.2" cy="250.3" r="4" fill="#7c3aed"/><circle cx="459.7" cy="251.2" r="4" fill="#7c3aed"/><circle cx="491.2" cy="245.8" r="4" fill="#7c3aed"/><circle cx="522.6" cy="245.4" r="4" fill="#7c3aed"/><circle cx="554.1" cy="252.7" r="4" fill="#7c3aed"/><circle cx="585.6" cy="247.8" r="4" fill="#7c3aed"/><circle cx="617.1" cy="250.8" r="4" fill="#7c3aed"/><circle cx="648.5" cy="246.2" r="4" fill="#7c3aed"/><circle cx="680.0" cy="248.1" r="4" fill="#7c3aed"/><line x1="700" y1="149" x2="724" y2="149" stroke="#7c3aed" stroke-width="3"/><text x="730" y="153" font-family="sans-serif" font-size="11">strict_matched_pair_accuracy</text></svg>